<svg xmlns="http://www.w3.org/2000/svg" viewBox="0 0 841.89 595.28"><defs><style>.cls-1{fill:#e6d9b9;}.cls-2{fill:none;}.cls-3{fill:#f9cd15;}.cls-4{fill:#ffab15;}.cls-5{fill:#c47d20;}</style></defs><title>Asset 6</title><g id="Layer_2" data-name="Layer 2"><g id="Camada_1" data-name="Camada 1"><rect class="cls-1" width="841.89" height="595.28"/><path class="cls-2" d="M268.93,273.36a4.9,4.9,0,0,0-1.72-2.21A4.9,4.9,0,0,1,268.93,273.36Z"/><path class="cls-2" d="M268.68,278a4,4,0,0,0,.4-.86A4,4,0,0,1,268.68,278Z"/><path class="cls-2" d="M368.47,230.3h0Z"/><path class="cls-3" d="M368.48,230.3a73.79,73.79,0,0,1,8.11-3.68,45.47,45.47,0,0,0-86.46,27.16,43.45,43.45,0,0,0,2.41,7.5c27.68-11.2,69-28.27,75.91-31Z"/><path class="cls-4" d="M376.6,226.64v0a73.79,73.79,0,0,0-8.11,3.68C371.44,229,374.18,227.75,376.6,226.64Z"/><path class="cls-4" d="M418.45,217.43c.21,0,.43,0,.65,0H419c-6.51-.59-27.24,3.3-42.39,9.19v0c-2.42,1.11-5.16,2.34-8.12,3.66h0c-6.89,2.7-48.23,19.77-75.91,31-14.38,5.82-25.07,10.05-25.33,9.87q-3.24.87-6.48,1.71a2.62,2.62,0,0,0-2,2.44v.19a2.68,2.68,0,0,0,2.71,2.61c2.32,0,7.41-.39,7.24-.12,22.27-1.53,53.81-.86,82.12-5.63,11-2.15,21.2-6.66,28.15-10.15,0,0,14.49-5.53,18.4-12.77,0,0,.36-16,13.3-19.14S428,223.58,418.45,217.43Z"/><path class="cls-5" d="M578.29,277.14a4.31,4.31,0,0,0-3.92-4.27,70.48,70.48,0,0,1-8.6-1.26c-2.59-.55-11.25-.27-13.82-1.33-40.67-16.79-70.54-14.8-101.32-36.5-14.75-10.4-25.1-16.18-31.53-16.34-.22,0-.44,0-.65,0,9.53,6.15,5.06,9.7-7.8,12.86s-13.3,19.14-13.3,19.14c-3.91,7.24-18.4,12.77-18.4,12.77-6.95,3.49-17.13,8-28.15,10.15h0c2.77,3.95,57.35-2.84,62.1-3.39,6-.68,27.06,4.94,29.69,4.75,13.35-1,27,5.69,39.95,2.44,10.1-2.55,20.17-3.74,30.54-1.59,15,3.09,35.06,2,50.26,3.12a130.26,130.26,0,0,0,14.93.31,7,7,0,0,0,0-.81Z"/><path class="cls-5" d="M269.63,305.85a24.86,24.86,0,0,0-7.31-3.62,28.07,28.07,0,0,0-8.38-1.28,37.77,37.77,0,0,0-11.78,1.65,26.89,26.89,0,0,0-8.39,4.3,17.72,17.72,0,0,0-5,6,15,15,0,0,0-1.67,6.81,13.67,13.67,0,0,0,1.58,6.62,20.07,20.07,0,0,0,4.2,5.25,36.69,36.69,0,0,0,6,4.3c2.22,1.31,4.49,2.55,6.79,3.73l6.8,3.5a44.08,44.08,0,0,1,6,3.69,18.77,18.77,0,0,1,4.2,4.26,9.1,9.1,0,0,1,1.58,5.24,9.35,9.35,0,0,1-1.77,5.62,15.27,15.27,0,0,1-4.61,4.14,22.86,22.86,0,0,1-6.43,2.55,30.31,30.31,0,0,1-7.17.87,26,26,0,0,1-5.89-.66,16.36,16.36,0,0,1-5-2,10.62,10.62,0,0,1-3.5-3.46,9.16,9.16,0,0,1-1.32-5,16.61,16.61,0,0,1,.16-2.43c.11-.75.23-1.43.35-2s.24-1.19.35-1.71a7.25,7.25,0,0,0,.17-1.49,2.73,2.73,0,0,0-.89-2.24,3.37,3.37,0,0,0-2.2-.72,6.53,6.53,0,0,0-2.76.68,8.53,8.53,0,0,0-2.74,2,11,11,0,0,0-2.1,3.33,11.75,11.75,0,0,0-.85,4.64,17,17,0,0,0,2.29,8.92,19.85,19.85,0,0,0,6.07,6.34,28.14,28.14,0,0,0,8.65,3.79,39.82,39.82,0,0,0,10,1.26,42.57,42.57,0,0,0,7.29-.64,38.94,38.94,0,0,0,6.92-1.88,29.57,29.57,0,0,0,6.14-3.13,23.5,23.5,0,0,0,4.92-4.36,19.16,19.16,0,0,0,3.27-5.59,18.74,18.74,0,0,0,1.2-6.81,16,16,0,0,0-1.59-7.25,20.37,20.37,0,0,0-4.2-5.69,33.42,33.42,0,0,0-5.93-4.51q-3.32-2-6.8-3.75c-2.32-1.17-4.58-2.3-6.8-3.4a46.86,46.86,0,0,1-5.93-3.48,18.26,18.26,0,0,1-4.2-4,8,8,0,0,1-1.59-4.87,6.84,6.84,0,0,1,.89-3.25,9.16,9.16,0,0,1,2.72-3,15.3,15.3,0,0,1,4.57-2.18,22.13,22.13,0,0,1,6.45-.84,32.59,32.59,0,0,1,6.14.53,16.91,16.91,0,0,1,4.8,1.61,9,9,0,0,1,3.13,2.66,6.18,6.18,0,0,1,1.13,3.68,9.2,9.2,0,0,1-.54,2.95,16.6,16.6,0,0,1-1.64,3.4,16.15,16.15,0,0,0-1.69,3.35,8.15,8.15,0,0,0-.5,2.54,2.77,2.77,0,0,0,.79,2.16,2.85,2.85,0,0,0,2,.72,7.19,7.19,0,0,0,3.69-1.26,12.5,12.5,0,0,0,3.77-3.85,21.56,21.56,0,0,0,2.58-5.15,15.65,15.65,0,0,0,.8-4.82,13.7,13.7,0,0,0-2-7.21A19,19,0,0,0,269.63,305.85Z"/><path class="cls-5" d="M429.74,338.38a27.84,27.84,0,0,0-6.41-3.26,21.72,21.72,0,0,0-7.33-1.21,19.72,19.72,0,0,0-8.24,1.66,18.13,18.13,0,0,0-6.2,4.58,20.34,20.34,0,0,0-3.89,6.84,25.61,25.61,0,0,0-1.36,8.46,28.18,28.18,0,0,0,.2,3.32c-.56.52-1.15,1-1.77,1.52a20.27,20.27,0,0,1-2.18,1.51,14.07,14.07,0,0,1-2.22,1.07,6.24,6.24,0,0,1-2.11.41c-.52,0-.94-.33-1.27-1a5.94,5.94,0,0,1-.5-2.64,21.47,21.47,0,0,1,.77-5.76c.5-1.84,1.07-3.65,1.69-5.42s1.18-3.54,1.7-5.32a18.91,18.91,0,0,0,.79-5.45,6.12,6.12,0,0,0-.37-2.29,3.8,3.8,0,0,0-.93-1.38,3.06,3.06,0,0,0-1.17-.68,4.16,4.16,0,0,0-1.12-.19,7.8,7.8,0,0,0-4.22,1.47,29.46,29.46,0,0,0-4.51,3.66,58.87,58.87,0,0,0-4.37,4.76c-1.4,1.7-2.66,3.3-3.79,4.78l-.82-.58,3.23-6q1.85-3.42,3.73-7.27t3.71-8c1.21-2.74,2.28-5.43,3.23-8.1a71.59,71.59,0,0,0,2.29-7.7,29.78,29.78,0,0,0,.86-6.76,19.38,19.38,0,0,0-.33-3.73,7.28,7.28,0,0,0-1.17-2.86A5.57,5.57,0,0,0,383.4,295a8.73,8.73,0,0,0-3.65-.66,12.53,12.53,0,0,0-7.58,2.39,21.52,21.52,0,0,0-5.75,6.44,44.54,44.54,0,0,0-4.16,9.4,95.45,95.45,0,0,0-2.84,11.2q-1.14,5.88-1.75,11.89t-.95,11.45q-.33,5.44-.39,9.91c0,.85,0,1.66,0,2.42l-.49.44c-.63.55-1.27,1.09-1.91,1.61a23.13,23.13,0,0,1-1.9,1.38,14.27,14.27,0,0,1-1.73,1,3.56,3.56,0,0,1-1.42.37,2.15,2.15,0,0,1-2-1.65,11.89,11.89,0,0,1-.64-4.2c0-1,.07-2.13.19-3.34s.28-2.43.47-3.67.41-2.44.64-3.62.45-2.27.64-3.26.35-1.84.48-2.55a10.5,10.5,0,0,0,.18-1.53,8.25,8.25,0,0,0-1.21-4.77,3.8,3.8,0,0,0-3.28-1.73,8.45,8.45,0,0,0-3.75.82,7.47,7.47,0,0,0-3,3l-.86,1.52c-.39.69-.81,1.48-1.28,2.37s-1,1.83-1.5,2.8-1,1.9-1.51,2.78-.87,1.66-1.23,2.33L330.4,351h-.83a8.59,8.59,0,0,1,.13-1.13q.12-.84.3-2c.13-.75.26-1.58.4-2.47s.26-1.76.39-2.59.22-1.61.31-2.31a15.57,15.57,0,0,0,.12-1.67,6.71,6.71,0,0,0-.86-3.62,3.37,3.37,0,0,0-3.09-1.36,4.82,4.82,0,0,0-3.53,1.27,6.46,6.46,0,0,0-1.75,3.18q-.57,2.43-1.19,5.84l-.12.72c-.57-.63-1.16-1.25-1.76-1.87a36.22,36.22,0,0,0-5.56-4.67,28,28,0,0,0-6.4-3.26,21.78,21.78,0,0,0-7.34-1.21,19.76,19.76,0,0,0-8.24,1.66,18.13,18.13,0,0,0-6.2,4.58,20.34,20.34,0,0,0-3.89,6.84,25.61,25.61,0,0,0-1.36,8.46,28,28,0,0,0,.76,6.51,18.38,18.38,0,0,0,2.41,5.77,13.27,13.27,0,0,0,4.23,4.14,11.55,11.55,0,0,0,6.2,1.58,12.85,12.85,0,0,0,4.73-.86,15.76,15.76,0,0,0,4.1-2.35,17.66,17.66,0,0,0,3.34-3.5,23.42,23.42,0,0,0,2.47-4.33,25.42,25.42,0,0,0,1.55-4.78,23.48,23.48,0,0,0,.53-4.9,23.18,23.18,0,0,0-.6-5.09,21.43,21.43,0,0,0-1.79-5l.33-.45c1,.65,2.17,1.47,3.54,2.45s2.77,2,4.19,3.11,2.61,2.11,3.82,3.21l-.06.39c-.32,2.46-.6,4.88-.82,7.25s-.33,4.47-.33,6.28a25.6,25.6,0,0,0,.19,3.2,9.16,9.16,0,0,0,.74,2.76,4.31,4.31,0,0,0,4.3,2.65,4.54,4.54,0,0,0,2.39-.61,5.32,5.32,0,0,0,1.86-2.31l10.79-21.42h.66c-.33,2.19-.61,4.25-.82,6.16a46.54,46.54,0,0,0-.33,5.33c0,4.2.51,7.4,1.54,9.58s2.3,3.27,3.81,3.27a14.77,14.77,0,0,0,4.33-.63,23.2,23.2,0,0,0,3.95-1.65,31.43,31.43,0,0,0,3.65-2.29l.86-.64a12,12,0,0,0,.48,2.35,5,5,0,0,0,1.19,2.08A3.36,3.36,0,0,0,362,373a4.46,4.46,0,0,0,1.22-1.34,15.26,15.26,0,0,0,1.13-2.26c.38-.92.88-2,1.48-3.24a70.89,70.89,0,0,1,4.06-7.27q2.25-3.52,4.35-6.34c1.4-1.88,2.65-3.44,3.77-4.68a16.19,16.19,0,0,1,2.37-2.31l.86.13a5.41,5.41,0,0,0-.53.9c-.28.53-.6,1.2-1,2s-.77,1.76-1.2,2.8-.81,2.12-1.15,3.22-.63,2.19-.87,3.27a14.43,14.43,0,0,0-.35,3,17.79,17.79,0,0,0,.54,4.2,15.17,15.17,0,0,0,1.61,4.1,9.61,9.61,0,0,0,2.74,3.09,6.48,6.48,0,0,0,3.93,1.21,10.64,10.64,0,0,0,3.11-.49,24.16,24.16,0,0,0,3.25-1.26,30.1,30.1,0,0,0,3.24-1.75c1.07-.66,2.06-1.31,3-1.95l1.48-1.07c.16.26.31.54.47.8a13.34,13.34,0,0,0,4.22,4.14,11.59,11.59,0,0,0,6.2,1.58,12.87,12.87,0,0,0,4.74-.86,15.92,15.92,0,0,0,4.1-2.35,17.66,17.66,0,0,0,3.34-3.5,23.42,23.42,0,0,0,2.47-4.33,24.69,24.69,0,0,0,1.54-4.78,22.84,22.84,0,0,0,.54-4.9,23.18,23.18,0,0,0-.6-5.09,21.89,21.89,0,0,0-1.79-5l.33-.45c1,.65,2.17,1.47,3.54,2.45s2.77,2,4.19,3.11,2.75,2.22,4,3.37a24.44,24.44,0,0,1,3,3.22l.78-5.81a69.46,69.46,0,0,0-4.8-5.44A36.71,36.71,0,0,0,429.74,338.38Zm-128,17.38a24.82,24.82,0,0,1-1.59,4.78,13.32,13.32,0,0,1-2.31,3.58,3.74,3.74,0,0,1-2.72,1.42,5.16,5.16,0,0,1-4.61-2.49,8.28,8.28,0,0,1-1-2.65,15.46,15.46,0,0,1-.33-3.26,22.17,22.17,0,0,1,.66-5.23,22.47,22.47,0,0,1,1.81-5,13.51,13.51,0,0,1,2.68-3.68,4.64,4.64,0,0,1,3.21-1.44,3.48,3.48,0,0,1,2.19.7,5.18,5.18,0,0,1,1.48,1.89,11,11,0,0,1,.86,2.82,20.5,20.5,0,0,1,.29,3.53A22.9,22.9,0,0,1,301.75,355.76Zm66-17.2q-1.32,3-2.43,5.64c.25-3.13.6-6.32,1.07-9.59.19-1.4.42-2.88.68-4.43s.55-3.13.87-4.74.67-3.22,1.07-4.84.83-3.19,1.29-4.7a87.49,87.49,0,0,1,5-10.17c1.4-2.34,2.45-3.5,3.17-3.5.55,0,.82,1,.82,3.13a29.06,29.06,0,0,1-1.09,6.38,95.59,95.59,0,0,1-3.52,10.63q-.75,1.86-1.87,4.51l-2.42,5.65Q369,335.52,367.72,338.56Zm50.4,17.2a24.82,24.82,0,0,1-1.58,4.78,13.32,13.32,0,0,1-2.31,3.58,3.76,3.76,0,0,1-2.72,1.42,5.28,5.28,0,0,1-2.76-.68,5.18,5.18,0,0,1-1.85-1.81,8.28,8.28,0,0,1-1-2.65,15.46,15.46,0,0,1-.33-3.26,22.17,22.17,0,0,1,.66-5.23,22.47,22.47,0,0,1,1.81-5,13.51,13.51,0,0,1,2.68-3.68,4.62,4.62,0,0,1,3.21-1.44,3.43,3.43,0,0,1,2.18.7,5.1,5.1,0,0,1,1.49,1.89,11,11,0,0,1,.86,2.82,20.5,20.5,0,0,1,.29,3.53A22.34,22.34,0,0,1,418.12,355.76Z"/><path class="cls-5" d="M619.66,361.42c0-.71,0-1.4,0-2.08s0-1.38,0-2.12,0-1.56,0-2.47a16.67,16.67,0,0,1-1.83,2c-.76.7-1.6,1.41-2.51,2.12s-1.89,1.39-2.91,2-2,1.22-3,1.73a19.88,19.88,0,0,1-2.76,1.21,6.7,6.7,0,0,1-2.2.46,1.83,1.83,0,0,1-1.26-.39,2.39,2.39,0,0,1-.63-1.12,6.77,6.77,0,0,1-.25-1.69c0-.64,0-1.35,0-2.12a17.52,17.52,0,0,1,.24-2.2c.17-1.06.38-2.29.64-3.69s.54-2.91.85-4.53.58-3.19.84-4.72.47-2.92.64-4.2a26.31,26.31,0,0,0,.25-3,2.18,2.18,0,0,0-1.24-1.89,6.39,6.39,0,0,0-3.34-.74,7.65,7.65,0,0,0-3.31.68,2.6,2.6,0,0,0-1.67,1.67L592,357.22a11.49,11.49,0,0,1-1,2.95,9.3,9.3,0,0,1-1.5,2.18,6.39,6.39,0,0,1-1.79,1.36,4.07,4.07,0,0,1-1.86.47,1.76,1.76,0,0,1-1.07-.32,2.52,2.52,0,0,1-.74-.87,4.39,4.39,0,0,1-.43-1.22,6.51,6.51,0,0,1-.15-1.42s.07-.45.19-1.27.29-1.91.51-3.26.47-2.87.74-4.59.57-3.48.87-5.3.6-3.61.89-5.39.55-3.41.8-4.86c0-.47-.32-.86-1-1.18a8.22,8.22,0,0,0-3.13-.55,4.57,4.57,0,0,0-2.37.7,6.82,6.82,0,0,0-1.83,1.69,11.53,11.53,0,0,0-1.36,2.3,21.31,21.31,0,0,0-1,2.52c-.26.82-.47,1.58-.62,2.28s-.25,1.26-.3,1.67q-1.12,6.3-1.88,11.21c0,.16-.05.32-.07.48q-.74.6-1.56,1.23a45.6,45.6,0,0,1-4.9,3.23,34.17,34.17,0,0,1-5.33,2.47,15.39,15.39,0,0,1-5.22,1,6.16,6.16,0,0,1-1.46-.16,4.29,4.29,0,0,1-1.3-.58,5.85,5.85,0,0,1-1.21-1.15,14.3,14.3,0,0,1-1.22-1.86,28.49,28.49,0,0,0,6.66-2.76,24.3,24.3,0,0,0,5.29-4,18.63,18.63,0,0,0,3.48-4.82,11.42,11.42,0,0,0,1.26-5.1,10.57,10.57,0,0,0-.83-4.25,9.47,9.47,0,0,0-2.28-3.23,10.49,10.49,0,0,0-3.44-2.08,12,12,0,0,0-4.29-.74,12.75,12.75,0,0,0-5.17,1,15.07,15.07,0,0,0-4.2,2.72,18.5,18.5,0,0,0-3.27,3.95,26.2,26.2,0,0,0-2.33,4.72,29,29,0,0,0-1.83,9.63c-.56.77-1.13,1.5-1.69,2.19s-1.3,1.52-2,2.25a21.64,21.64,0,0,1-2.08,1.93,10.83,10.83,0,0,1-2.1,1.36,4.62,4.62,0,0,1-2,.52,3.13,3.13,0,0,1-2.58-1.1,5.58,5.58,0,0,1-.88-3.52A27.21,27.21,0,0,1,528,355q.48-2.65,1.18-5.79t1.5-6.63c.53-2.34,1-4.72,1.51-7.15s.85-4.89,1.17-7.37a58.82,58.82,0,0,0,.47-7.27,35.29,35.29,0,0,0-.7-7.19,22.51,22.51,0,0,0-2-5.94,11.84,11.84,0,0,0-3.27-4,7.22,7.22,0,0,0-4.47-1.48,14.64,14.64,0,0,0-7,1.81,22.25,22.25,0,0,0-6.3,5.21,37.47,37.47,0,0,0-5.27,8.26,61,61,0,0,0-4,11l-.86,0q.38-2.88.7-5.36c.08-.68.17-1.38.27-2.08s.18-1.35.24-1.95.13-1.14.17-1.61.06-.81.06-1a26.62,26.62,0,0,0-.64-6.26,13.43,13.43,0,0,0-1.79-4.37,7.42,7.42,0,0,0-2.76-2.55,7.56,7.56,0,0,0-3.5-.83,10.82,10.82,0,0,0-5.15,1.4,22.42,22.42,0,0,0-5.13,4,40.79,40.79,0,0,0-4.92,6.12,63.08,63.08,0,0,0-4.51,7.95,93.46,93.46,0,0,0-3.92,9.43A105.17,105.17,0,0,0,466,341.82q.62-3,1.28-6.39t1.21-6.82c.38-2.26.69-4.43.93-6.49a45.3,45.3,0,0,0,.37-5.39,35.29,35.29,0,0,0-.39-5.48A12.4,12.4,0,0,0,468,307a7,7,0,0,0-2.68-2.72,8.37,8.37,0,0,0-4.24-1,11.58,11.58,0,0,0-4.14.82,13.07,13.07,0,0,0-4.24,2.78,22.4,22.4,0,0,0-4,5.24,39.88,39.88,0,0,0-3.36,8.13.56.56,0,0,0-.16.41,4.77,4.77,0,0,0,.12,1,10,10,0,0,0,.31,1,5.19,5.19,0,0,0,.41.85c.16.23.3.35.44.35a2.57,2.57,0,0,0,1.19-.27,1.57,1.57,0,0,0,.78-.89,28.43,28.43,0,0,1,2.89-3.31,28.94,28.94,0,0,1,3.13-2.7,18.12,18.12,0,0,1,3-1.83,5.69,5.69,0,0,1,2.41-.68,1.11,1.11,0,0,1,.92.37,2,2,0,0,1,.43.88,4.34,4.34,0,0,1,.13,1.09v.95q-.33,4.29-.62,8c-.19,2.49-.4,4.92-.64,7.27s-.5,4.68-.8,7-.66,4.72-1.07,7.19-.91,5.09-1.49,7.85-1.25,5.74-2,9a26.37,26.37,0,0,0-.5,2.86,27.12,27.12,0,0,0-.16,3.11,2.7,2.7,0,0,0,.45,1.54,3.75,3.75,0,0,0,1.24,1.16,6.08,6.08,0,0,0,1.79.7,9.47,9.47,0,0,0,2.08.22,10.57,10.57,0,0,0,1.89-.18,6.61,6.61,0,0,0,1.86-.64,4.6,4.6,0,0,0,1.48-1.23,4.13,4.13,0,0,0,.78-2q.54-4,1.61-8.47c.71-3,1.54-6.08,2.47-9.23s2-6.29,3.07-9.43,2.27-6.16,3.46-9,2.4-5.57,3.61-8.06a73.17,73.17,0,0,1,3.52-6.49,27.36,27.36,0,0,1,3.19-4.32,4.06,4.06,0,0,1,2.64-1.57,3.29,3.29,0,0,1,2.24.74,4.65,4.65,0,0,1,1.3,2.15,13.93,13.93,0,0,1,.58,3.42c.08,1.34.12,2.87.12,4.57a73,73,0,0,1-.5,8.11c-.32,2.94-.74,5.92-1.25,8.92s-1.06,6-1.65,8.86-1.14,5.56-1.65,8-.93,4.52-1.25,6.26a23.55,23.55,0,0,0-.5,3.69,8.28,8.28,0,0,0,.39,2.72,5.54,5.54,0,0,0,1,1.83,3.83,3.83,0,0,0,1.49,1.05,4.64,4.64,0,0,0,1.71.33,9,9,0,0,0,2-.22,7.1,7.1,0,0,0,1.87-.72,5.7,5.7,0,0,0,1.56-1.3,5.14,5.14,0,0,0,1-2c.5-2.74,1-5.66,1.61-8.73s1.2-6.19,1.85-9.35,1.38-6.3,2.15-9.42,1.59-6.09,2.49-8.94,1.84-5.48,2.84-7.93a38.53,38.53,0,0,1,3.24-6.34,16.78,16.78,0,0,1,3.66-4.2,6.52,6.52,0,0,1,4.12-1.53,2.87,2.87,0,0,1,1.86.58,3.72,3.72,0,0,1,1.07,1.63,10.49,10.49,0,0,1,.49,2.55q.12,1.5.12,3.36a50.57,50.57,0,0,1-.41,6.36c-.27,2.22-.62,4.45-1,6.72s-.86,4.54-1.36,6.82-1,4.51-1.42,6.71-.86,4.33-1.22,6.41a55.17,55.17,0,0,0-.7,5.87l-.06.74c0,.25,0,.48,0,.7a13.08,13.08,0,0,0,1,5.25,11.28,11.28,0,0,0,2.64,3.83,11,11,0,0,0,3.77,2.33,12.46,12.46,0,0,0,4.34.78,15.83,15.83,0,0,0,9.23-3,25.33,25.33,0,0,0,4.45-4.1c.2-.23.39-.47.58-.71a15.43,15.43,0,0,0,1.73,2.62,13.92,13.92,0,0,0,4.84,3.77,15.33,15.33,0,0,0,6.77,1.4,21.76,21.76,0,0,0,4.89-.55,29.31,29.31,0,0,0,4.65-1.49,32.89,32.89,0,0,0,4.29-2.12c1.19-.69,2.29-1.4,3.35-2.12a11.42,11.42,0,0,0,.33,1.57,7.74,7.74,0,0,0,1.47,2.82,5.19,5.19,0,0,0,2.12,1.52,7,7,0,0,0,2.55.46,9.44,9.44,0,0,0,3.4-.68,16.56,16.56,0,0,0,3.46-1.88,25.13,25.13,0,0,0,3.36-2.82,33.89,33.89,0,0,0,3.13-3.56,26.82,26.82,0,0,0,1,3.44,10.46,10.46,0,0,0,1.36,2.65,5.7,5.7,0,0,0,1.91,1.73,5.36,5.36,0,0,0,2.68.62,14.56,14.56,0,0,0,3.38-.43,28,28,0,0,0,3.66-1.15,37.76,37.76,0,0,0,3.69-1.67c1.22-.63,2.38-1.29,3.46-2s2.08-1.37,3-2.06a22.54,22.54,0,0,0,2.24-1.94C619.68,362.94,619.68,362.14,619.66,361.42ZM551,351.91a19.55,19.55,0,0,1,.35-2.64,17.15,17.15,0,0,1,.78-2.7,8.89,8.89,0,0,1,1.36-2.39,6.21,6.21,0,0,1,5.13-2.36,2,2,0,0,1,1.67,1.19,6.15,6.15,0,0,1,.68,3.05,4.68,4.68,0,0,1-1,2.72,13.49,13.49,0,0,1-2.54,2.59,14.35,14.35,0,0,1-3.25,2,8.11,8.11,0,0,1-3.23.76C550.89,353.49,550.91,352.76,551,351.91Z"/><path class="cls-5" d="M283.93,420.83c-15.66,0-27.41-10.14-27.56-10.28a1.61,1.61,0,0,1,2.13-2.42h0c.19.16,18.43,15.85,39,6.49,22.41-10.19,34.43-2,34.93-1.65a1.61,1.61,0,0,1-1.86,2.64c-.1-.07-11.14-7.41-31.73,1.95A35.75,35.75,0,0,1,283.93,420.83Z"/><path class="cls-5" d="M549.38,420.83a35.72,35.72,0,0,1-14.93-3.27c-20.6-9.36-31.63-2-31.74-1.94a1.62,1.62,0,0,1-1.86-2.65c.5-.35,12.53-8.54,34.94,1.65,20.59,9.36,38.83-6.33,39-6.49a1.62,1.62,0,0,1,2.14,2.42C576.79,410.69,565,420.83,549.38,420.83Z"/><path class="cls-5" d="M355.92,404a10.29,10.29,0,0,1,3.1.42,5.83,5.83,0,0,1,2.18,1.17,4.6,4.6,0,0,1,1.29,1.82,6.5,6.5,0,0,1,.42,2.38,6.26,6.26,0,0,1-.46,2.4,5.08,5.08,0,0,1-1.33,1.88,6.09,6.09,0,0,1-2.19,1.22,9.55,9.55,0,0,1-3,.43h-2.87v6.84H350.3V404Zm0,9.55a5.75,5.75,0,0,0,1.84-.27,3.7,3.7,0,0,0,1.33-.77,3.27,3.27,0,0,0,.81-1.19,4.17,4.17,0,0,0,.27-1.53,3.41,3.41,0,0,0-1.06-2.66,4.54,4.54,0,0,0-3.19-1h-2.87v7.39Z"/><path class="cls-5" d="M385.8,413.24a10.68,10.68,0,0,1-.66,3.82,9,9,0,0,1-1.88,3,8.51,8.51,0,0,1-2.91,1.95,10.42,10.42,0,0,1-7.51,0,8.33,8.33,0,0,1-2.91-1.95,9,9,0,0,1-1.88-3,11.2,11.2,0,0,1,0-7.63,8.93,8.93,0,0,1,1.88-3,8.35,8.35,0,0,1,2.91-2,10.42,10.42,0,0,1,7.51,0,8.54,8.54,0,0,1,2.91,2,8.93,8.93,0,0,1,1.88,3A10.66,10.66,0,0,1,385.8,413.24Zm-2.82,0a9.17,9.17,0,0,0-.45-3,6.38,6.38,0,0,0-1.28-2.24,5.67,5.67,0,0,0-2-1.41,7.36,7.36,0,0,0-5.28,0,5.71,5.71,0,0,0-2,1.41,6.25,6.25,0,0,0-1.29,2.24,10.06,10.06,0,0,0,0,6,6.29,6.29,0,0,0,1.29,2.23,5.56,5.56,0,0,0,2,1.4,7.5,7.5,0,0,0,5.28,0,5.52,5.52,0,0,0,2-1.4,6.42,6.42,0,0,0,1.28-2.23A9.19,9.19,0,0,0,383,413.24Z"/><path class="cls-5" d="M399.07,420.31a5,5,0,0,0,2-.38,4.19,4.19,0,0,0,1.49-1.05,4.78,4.78,0,0,0,.93-1.62,6.42,6.42,0,0,0,.32-2.07V404h2.74v11.23a8.38,8.38,0,0,1-.52,3,6.68,6.68,0,0,1-3.84,4,8.77,8.77,0,0,1-6.22,0,6.68,6.68,0,0,1-3.84-4,8.38,8.38,0,0,1-.52-3V404h2.75v11.22a6.53,6.53,0,0,0,.32,2.08,4.6,4.6,0,0,0,.92,1.62,4.19,4.19,0,0,0,1.49,1.05A5,5,0,0,0,399.07,420.31Z"/><path class="cls-5" d="M423.08,407a1.13,1.13,0,0,1-.28.32.57.57,0,0,1-.36.1,1,1,0,0,1-.53-.21c-.2-.14-.44-.3-.74-.48a6,6,0,0,0-1.07-.48,4.59,4.59,0,0,0-1.48-.21,4.44,4.44,0,0,0-1.43.21,3.3,3.3,0,0,0-1,.58,2.53,2.53,0,0,0-.62.87,2.58,2.58,0,0,0-.22,1.08,2,2,0,0,0,.38,1.24,3.24,3.24,0,0,0,1,.84,8.66,8.66,0,0,0,1.4.61l1.62.53c.55.19,1.09.4,1.61.64a5.69,5.69,0,0,1,1.41.91,4.1,4.1,0,0,1,1,1.35,4.36,4.36,0,0,1,.38,1.94,6.23,6.23,0,0,1-.42,2.3,5.1,5.1,0,0,1-1.22,1.87,5.47,5.47,0,0,1-2,1.26,7.12,7.12,0,0,1-2.65.46,8.19,8.19,0,0,1-1.73-.17,8.92,8.92,0,0,1-1.59-.49,8.17,8.17,0,0,1-1.4-.76,6.75,6.75,0,0,1-1.17-1l.79-1.31a.84.84,0,0,1,.27-.26.67.67,0,0,1,.37-.11,1.09,1.09,0,0,1,.63.29,10.39,10.39,0,0,0,.88.63,6.93,6.93,0,0,0,1.25.62,4.91,4.91,0,0,0,1.78.29,4.8,4.8,0,0,0,1.52-.23,3.05,3.05,0,0,0,1.13-.65,2.8,2.8,0,0,0,.71-1,3.52,3.52,0,0,0,.24-1.32,2.22,2.22,0,0,0-.37-1.33,3.12,3.12,0,0,0-1-.86,6.5,6.5,0,0,0-1.41-.6l-1.61-.51c-.55-.18-1.09-.38-1.62-.61a5.77,5.77,0,0,1-1.41-.91,4.26,4.26,0,0,1-1-1.41,5.18,5.18,0,0,1-.37-2.09,4.91,4.91,0,0,1,.38-1.92,5,5,0,0,1,1.13-1.65,5.65,5.65,0,0,1,1.83-1.15,6.61,6.61,0,0,1,2.48-.43,8.14,8.14,0,0,1,2.88.49,6.73,6.73,0,0,1,2.28,1.43Z"/><path class="cls-5" d="M445.07,422.52H443a1,1,0,0,1-.6-.18,1.12,1.12,0,0,1-.33-.47l-1.64-4.3H432.2l-1.64,4.3a1.17,1.17,0,0,1-.34.45.92.92,0,0,1-.59.2h-2.12L434.9,404h2.78Zm-5.44-6.92-2.76-7.19a18.22,18.22,0,0,1-.59-1.86c-.1.37-.19.71-.29,1s-.2.6-.29.85L433,415.6Z"/><path class="cls-5" d="M466.15,413.24a10.34,10.34,0,0,1-.66,3.78,8.48,8.48,0,0,1-1.88,2.93,8.23,8.23,0,0,1-2.91,1.89,10.07,10.07,0,0,1-3.76.68h-7V404h7a10.27,10.27,0,0,1,3.76.67,8.39,8.39,0,0,1,2.91,1.9,8.48,8.48,0,0,1,1.88,2.93A10.42,10.42,0,0,1,466.15,413.24Zm-2.82,0a9.17,9.17,0,0,0-.45-3,6.38,6.38,0,0,0-1.28-2.22,5.5,5.5,0,0,0-2-1.39,7,7,0,0,0-2.64-.48h-4.21v14.11h4.21a7.17,7.17,0,0,0,2.64-.47,5.62,5.62,0,0,0,2-1.39,6.38,6.38,0,0,0,1.28-2.22A9.09,9.09,0,0,0,463.33,413.24Z"/><path class="cls-5" d="M487,422.52h-2.12a.92.92,0,0,1-.59-.18,1.06,1.06,0,0,1-.34-.47l-1.64-4.3h-8.18l-1.64,4.3a1.08,1.08,0,0,1-.34.45.92.92,0,0,1-.59.2h-2.12L476.81,404h2.78Zm-5.44-6.92-2.75-7.19a15.82,15.82,0,0,1-.6-1.86c-.09.37-.19.71-.29,1s-.19.6-.29.85l-2.74,7.17Z"/></g></g></svg>